<svg class="hostim_shape_divider" width="1920" height="361" viewBox="0 0 1920 361" fill="none" xmlns="http://www.w3.org/2000/svg">
<g clip-path="url(#clip0_6308_80)">
<path class="elementor-shape-fill" fill-rule="evenodd" clip-rule="evenodd" d="M1920 234.984C1869.9 233.256 1828 199.195 1814.54 153.016C1813.83 150.57 1811.46 148.985 1808.91 149.043C1808.77 149.046 1808.62 149.048 1808.47 149.05C1808.32 149.052 1808.16 149.053 1808 149.053C1791.79 149.053 1777.83 139.408 1771.55 125.544C1769.92 121.954 1764.98 120.406 1761.81 122.74C1750.56 131.006 1736.44 136.388 1720.87 137.461C1690.33 139.563 1663.1 124.496 1651.11 101.444C1649.28 97.925 1644.18 97.0245 1641.37 99.8197C1626.91 114.18 1606.99 123.053 1585 123.053C1546.56 123.053 1514.46 95.9447 1506.76 59.8035C1506.06 56.5365 1502.55 54.5578 1499.29 55.2703C1496.94 55.7828 1494.5 56.0528 1492 56.0528C1484.67 56.0528 1477.88 53.7316 1472.32 49.7838C1471.13 48.9367 1469.67 48.5526 1468.21 48.7323C1466.51 48.9438 1464.77 49.0528 1463 49.0528C1450.63 49.0528 1439.52 43.709 1431.83 35.2047C1430.56 33.7997 1428.67 33.0909 1426.8 33.3696C1423.78 33.8184 1420.68 34.0528 1417.5 34.0528C1392.39 34.0528 1371.48 19.396 1366.92 0C1357.35 1.22736 1347.87 2.89642 1338.5 5.0528C1223.93 31.4244 1150.51 92.6651 1072.71 157.561C974.979 239.083 870.332 326.373 668.5 357.553C408 378.553 90.5 248.553 0 51.0528V1174.05C0 1178.47 3.58172 1182.05 8 1182.05H854C858.418 1182.05 862 1178.47 862 1174.05V1162.16C862 1157.75 865.582 1154.16 870 1154.16H1049C1053.42 1154.16 1057 1157.75 1057 1162.16V1174.05C1057 1178.47 1060.58 1182.05 1065 1182.05H1912C1916.42 1182.05 1920 1178.47 1920 1174.05V234.984Z" fill="#000B63"/>
</g>
<defs>
<clipPath id="clip0_6308_80">
<rect width="1920" height="361" fill="white"/>
</clipPath>
</defs>
</svg>
