<svg width="3629" height="5261" viewBox="0 0 3629 5261" fill="none" xmlns="http://www.w3.org/2000/svg">
<path d="M2336.87 0.467285H2177.17V2049.47H1451.21V827.034H0.218018V3933.61C0.218018 4665.54 579.476 5260.99 1291.51 5260.99H1451.21V3334.06H2177.17V4605.74H3628.17V1327.85C3628.17 595.914 3048.91 0.467285 2336.87 0.467285ZM1131.81 4919.18C671.532 4840.73 319.62 4428.56 319.62 3933.61V3334.06H1131.81V4919.18ZM3308.76 4277.41H2496.57V3005.73H319.62V1155.36H1131.81V2377.8H3308.76V4277.41ZM3308.76 2049.47H2496.57V342.281C2956.85 420.728 3308.76 832.78 3308.76 1327.85V2049.47Z" fill="white"/>
</svg>
